<svg xmlns="http://www.w3.org/2000/svg" version="1.1" xmlns:xlink="http://www.w3.org/1999/xlink" width="512" height="512" x="0" y="0" viewBox="0 0 512.002 512.002" style="enable-background:new 0 0 512 512" xml:space="preserve" class=""><g><path d="M158.264 187.777h36.964c13.807-25.333 37.407-44.54 65.73-52.526-5.698-13.835-19.305-23.575-35.191-23.575-3.97 0-7.797.612-11.393 1.738.019-.578.044-1.155.044-1.738 0-28.259-22.913-51.171-51.174-51.171-24.373 0-44.749 17.038-49.903 39.85a30.706 30.706 0 0 0-9.729-1.579c-10.469 0-19.71 5.242-25.253 13.241a38.769 38.769 0 0 0-9.682-1.23c-21.26 0-38.492 17.234-38.492 38.494 0 21.256 17.233 38.494 38.492 38.494h61.542" style="" fill="#9fdef7" data-original="#9fdef7" class=""></path><path d="M369.578 165.557c-19.779-21.155-47.935-34.379-79.179-34.379-51.609 0-94.762 36.087-105.678 84.396a64.978 64.978 0 0 0-20.6-3.349c-22.172 0-41.739 11.102-53.475 28.044a81.882 81.882 0 0 0-20.501-2.601c-45.02 0-81.515 36.495-81.515 81.515 0 45.018 36.495 81.517 81.515 81.517h89.875c.19-27.709 22.699-50.111 50.446-50.111 5.262 0 10.338.807 15.107 2.302-.024-.764-.058-1.528-.058-2.302 0-37.48 30.383-67.863 67.861-67.863 32.316 0 59.341 22.598 66.176 52.848a40.634 40.634 0 0 1 12.897-2.097c13.884 0 26.138 6.951 33.486 17.563a51.209 51.209 0 0 1 12.838-1.631c18.583 0 34.841 9.932 43.769 24.773 12.943-14.295 20.83-33.254 20.83-54.055 0-44.503-36.074-80.574-80.574-80.574a80.512 80.512 0 0 0-24.12 3.675c.039-1.221.092-2.444.092-3.675 0-18.197-4.485-35.347-12.411-50.405" style="" fill="#beeafc" data-original="#beeafc" class=""></path><path d="M381.527 451.496H230.468c-27.863 0-50.451-22.588-50.451-50.45 0-27.87 22.589-50.456 50.451-50.456 5.262 0 10.338.807 15.107 2.302-.024-.764-.058-1.528-.058-2.302 0-37.48 30.383-67.863 67.861-67.863 32.316 0 59.341 22.598 66.176 52.848a40.634 40.634 0 0 1 12.897-2.097c13.884 0 26.138 6.951 33.486 17.563a51.209 51.209 0 0 1 12.838-1.631c28.192 0 51.046 22.853 51.046 51.043s-22.854 51.044-51.046 51.044h-29.212" style="" fill="#e4f2f9" data-original="#e4f2f9" class=""></path><path d="M284.275 336.599c0-18.212 3.865-35.519 10.809-51.157-28.589 7.989-49.567 34.21-49.567 65.348 0 .773.033 1.538.058 2.302a50.431 50.431 0 0 0-15.107-2.302c-27.863 0-50.451 22.586-50.451 50.456 0 27.863 22.589 50.45 50.451 50.45h128.207c-43.863-19.762-74.4-63.863-74.4-115.097z" style="" fill="#d7edf9" data-original="#d7edf9" class=""></path><path d="M95.06 240.178a81.618 81.618 0 0 0-4.913-.152c-45.02 0-81.515 36.495-81.515 81.515 0 45.018 36.495 81.517 81.515 81.517h89.875a50.233 50.233 0 0 1 6.246-23.987c-44.438-34.198-77.18-82.833-91.208-138.893z" style="" fill="#aee4ff" data-original="#aee4ff" class=""></path><path d="M87.495 178.611c0-26.44 4.066-51.927 11.593-75.881-8.119 1.499-15.119 6.191-19.647 12.727a38.769 38.769 0 0 0-9.682-1.23c-21.26 0-38.492 17.234-38.492 38.494 0 21.256 17.232 38.494 38.492 38.494h18.047a259.584 259.584 0 0 1-.311-12.604z" style="" fill="#83d4ed" data-original="#83d4ed" class=""></path><path d="M512.002 320.127c0-49.185-40.017-89.202-89.202-89.202-5.264 0-10.49.458-15.627 1.368-1.027-16.465-5.531-32.634-13.177-47.163a8.627 8.627 0 0 0-11.654-3.617 8.63 8.63 0 0 0-3.617 11.654c7.47 14.191 11.417 30.232 11.417 46.388 0 .88-.031 1.757-.061 2.629l-.026.77a8.628 8.628 0 0 0 11.204 8.508 71.957 71.957 0 0 1 21.54-3.28c39.671 0 71.946 32.275 71.946 71.946a71.783 71.783 0 0 1-12.088 39.92c-.303-.327-.622-.636-.933-.957-.339-.352-.674-.704-1.02-1.047-.235-.231-.476-.454-.714-.681a61.006 61.006 0 0 0-1.649-1.526c-.091-.081-.183-.159-.275-.238-10.506-9.213-24.253-14.817-39.291-14.817-3.14 0-6.271.247-9.361.734a49.363 49.363 0 0 0-43.844-16.186 76.96 76.96 0 0 0-24.12-34.229c-13.544-10.964-30.616-17.003-48.071-17.003-39.395 0-71.93 29.937-76.049 68.258a59.817 59.817 0 0 0-6.861-.395c-.969 0-1.931.027-2.887.073-.367.017-.729.052-1.094.076-.58.039-1.161.077-1.736.133-.464.045-.923.105-1.384.161-.462.056-.923.11-1.382.176-.527.077-1.05.166-1.574.256-.372.065-.745.128-1.115.2a55.75 55.75 0 0 0-1.747.367 58.213 58.213 0 0 0-2.789.696l-.535.152a57.78 57.78 0 0 0-2.3.709c-20.77 6.885-36.473 24.993-39.857 47.113H90.146c-40.19 0-72.887-32.698-72.887-72.889 0-40.19 32.697-72.887 72.887-72.887 6.194 0 12.365.783 18.343 2.327a8.637 8.637 0 0 0 9.251-3.441c10.552-15.234 27.891-24.329 46.382-24.329 6.076 0 12.088.977 17.869 2.906a8.628 8.628 0 0 0 11.146-6.283 100.836 100.836 0 0 1 9.002-24.539 8.55 8.55 0 0 0 .664-1.031c12.808-23.498 34.857-41.121 60.496-48.349a8.8 8.8 0 0 0 .894-.307 101.065 101.065 0 0 1 26.204-3.443c27.918 0 53.799 11.238 72.876 31.644a8.63 8.63 0 0 0 12.606-11.786c-22.052-23.586-53.209-37.114-85.482-37.114-8.404 0-16.749.919-24.886 2.695-8.401-13.683-23.304-22.196-39.745-22.196-1.111 0-2.22.039-3.323.116-4.144-28.959-29.112-51.288-59.199-51.288-25.271 0-47.186 15.441-55.881 38.449a39.354 39.354 0 0 0-32.436 12.249 47.336 47.336 0 0 0-6.25-.415c-25.983 0-47.12 21.139-47.12 47.122s21.138 47.122 47.12 47.122h61.542a8.628 8.628 0 0 0 0-17.256H68.681c-16.467 0-29.863-13.398-29.863-29.866 0-16.469 13.398-29.866 29.863-29.866 2.536 0 5.067.321 7.527.957a8.629 8.629 0 0 0 9.246-3.442 22.107 22.107 0 0 1 18.16-9.527c2.385 0 4.74.382 7 1.136a8.625 8.625 0 0 0 11.145-6.284c4.405-19.502 21.464-33.123 41.486-33.123 23.46 0 42.546 19.085 42.546 42.543 0 .366-.015.728-.027 1.09l-.013.366a8.628 8.628 0 0 0 11.202 8.517 29.448 29.448 0 0 1 8.814-1.344c8.74 0 16.794 3.816 22.279 10.187-.3.118-.593.25-.892.37-.547.218-1.087.451-1.631.676-.849.355-1.699.709-2.539 1.083a118.77 118.77 0 0 0-2.988 1.386c-.342.164-.686.322-1.027.49-7.837 3.831-15.268 8.525-22.101 14.056-9.251 7.489-17.259 16.344-23.798 26.153-.283.422-.554.851-.83 1.278-.527.813-1.049 1.63-1.556 2.457-.147.238-.304.469-.449.709h-31.974a8.628 8.628 0 0 0 0 17.256h23.407a115.793 115.793 0 0 0-3.058 8.63 73.46 73.46 0 0 0-14.492-1.44c-22.176 0-43.078 10.009-57.012 27.041a90.864 90.864 0 0 0-16.963-1.598C40.438 229.039 0 269.478 0 319.183c0 49.706 40.438 90.146 90.144 90.146h81.833c4.041 28.667 28.722 50.797 58.488 50.797h151.06a8.628 8.628 0 0 0 0-17.256H230.468c-23.062 0-41.823-18.762-41.823-41.822 0-.201.012-.398.015-.598.009-.601.024-1.199.057-1.795.004-.074.012-.148.017-.222.04-.642.09-1.28.159-1.913l.001-.012c2.279-20.916 20.106-37.29 41.573-37.29 4.275 0 8.489.642 12.526 1.907a8.63 8.63 0 0 0 11.204-8.507l-.018-.521c-.017-.499-.036-1.001-.036-1.506 0-32.662 26.572-59.235 59.233-59.235 27.429 0 51.721 19.396 57.76 46.122a8.63 8.63 0 0 0 11.148 6.283 32.014 32.014 0 0 1 10.165-1.653 32.121 32.121 0 0 1 26.393 13.846 8.625 8.625 0 0 0 9.256 3.442 42.588 42.588 0 0 1 10.675-1.356c.841 0 1.675.032 2.507.08.311.018.619.046.929.071a42.998 42.998 0 0 1 2.693.297c.328.047.654.105.98.159 10.927 1.852 20.448 7.886 26.839 16.406l.078.104a42.19 42.19 0 0 1 8.392 25.298c0 23.388-19.029 42.415-42.418 42.415h-29.21a8.628 8.628 0 0 0 0 17.256h29.211c32.905 0 59.674-26.768 59.674-59.672a59.314 59.314 0 0 0-5.582-25.161 88.969 88.969 0 0 0 19.136-55.166z" style="" fill="#231f20" data-original="#231f20" class=""></path></g></svg>
