<svg xmlns="http://www.w3.org/2000/svg" version="1.1" xmlns:xlink="http://www.w3.org/1999/xlink" width="512" height="512" x="0" y="0" viewBox="0 0 128 128" style="enable-background:new 0 0 512 512" xml:space="preserve" class=""><g><g fill="#09607d"><path d="M53.227 105.6a1.751 1.751 0 0 1-1.238-2.988l12.4-12.4a1.75 1.75 0 0 1 2.474 2.475l-12.4 12.4a1.743 1.743 0 0 1-1.236.513zM69.022 105.6a1.751 1.751 0 0 1-1.237-2.988l11.139-11.141a1.749 1.749 0 0 1 2.476 2.474l-11.14 11.139a1.744 1.744 0 0 1-1.238.516zM84.819 105.6a1.751 1.751 0 0 1-1.237-2.988l11.889-11.891a1.749 1.749 0 0 1 2.474 2.479l-11.888 11.884a1.744 1.744 0 0 1-1.238.516zM100.615 105.6a1.751 1.751 0 0 1-1.237-2.988L110.893 91.1a1.749 1.749 0 0 1 2.474 2.474l-11.515 11.514a1.741 1.741 0 0 1-1.237.512z" fill="#09607d" opacity="1" data-original="#09607d"></path></g><g fill="#09607d"><path d="M53.227 118.606a1.75 1.75 0 0 1-1.238-2.987l9-9a1.75 1.75 0 0 1 2.474 2.475l-9 9a1.748 1.748 0 0 1-1.236.512zM69.022 118.606a1.75 1.75 0 0 1-1.237-2.987l9-9a1.75 1.75 0 1 1 2.475 2.481l-9 9a1.747 1.747 0 0 1-1.238.506zM84.819 118.606a1.75 1.75 0 0 1-1.237-2.987l9-9a1.75 1.75 0 0 1 2.475 2.475l-9 9a1.747 1.747 0 0 1-1.238.512zM100.615 118.606a1.75 1.75 0 0 1-1.237-2.987l9-9a1.75 1.75 0 1 1 2.474 2.475l-9 9a1.744 1.744 0 0 1-1.237.512z" fill="#09607d" opacity="1" data-original="#09607d"></path></g><path fill="#ffb655" d="M53.913 37.86a19.109 19.109 0 0 1 18.7 15.2 21.1 21.1 0 0 1 15.706 12.92 16.411 16.411 0 0 1 15.808-3.23v-.17a8.9 8.9 0 0 1 2.606-6.293l8.211-8.211-8.211-8.211a8.9 8.9 0 0 1-2.606-6.293V21.96H92.515a8.9 8.9 0 0 1-6.293-2.606l-8.211-8.211-8.211 8.211a8.9 8.9 0 0 1-6.293 2.606H51.9v11.612a8.89 8.89 0 0 1-1.283 4.582 19.185 19.185 0 0 1 3.296-.294z" opacity="1" data-original="#ffb655"></path><path fill="#beebfa" d="M47.31 73.41c.12 0 .236.014.355.018a21.073 21.073 0 0 1 40.654-7.443 16.439 16.439 0 0 1 26.451 7.464c.253-.018.505-.039.762-.039a10.719 10.719 0 0 1 0 21.437H47.31a10.719 10.719 0 0 1 0-21.437z" opacity="1" data-original="#beebfa" class=""></path><path fill="#9ee2f8" d="M11.471 56.648c.233 0 .461.019.69.035a14.91 14.91 0 0 1 23.989-6.769 19.108 19.108 0 0 1 36.463 3.151 21.013 21.013 0 0 0-24.948 20.363c-.119 0-.235-.018-.355-.018a10.664 10.664 0 0 0-7.073 2.68H11.471a9.721 9.721 0 0 1 0-19.442z" opacity="1" data-original="#9ee2f8" class=""></path><path fill="#ffe477" d="M72.613 53.065a21.1 21.1 0 0 1 15.706 12.92 16.476 16.476 0 0 1 4.546-2.785 21.193 21.193 0 1 0-33.789-24.627 19.135 19.135 0 0 1 13.537 14.492z" opacity="1" data-original="#ffe477" class=""></path><path fill="#ffb655" d="M91.215 49.826a1.749 1.749 0 0 1-1.75-1.75 11.466 11.466 0 0 0-11.453-11.453 1.75 1.75 0 0 1 0-3.5 14.97 14.97 0 0 1 14.953 14.953 1.749 1.749 0 0 1-1.75 1.75z" opacity="1" data-original="#ffb655"></path></g></svg>
