<svg xmlns="http://www.w3.org/2000/svg" version="1.1" xmlns:xlink="http://www.w3.org/1999/xlink" width="512" height="512" x="0" y="0" viewBox="0 0 512 512" style="enable-background:new 0 0 512 512" xml:space="preserve" class=""><g><path fill="#cfcfcf" d="M486.132 38.771H440.01c-10.706 0-19.385-8.679-19.385-19.385S429.304 0 440.01 0h46.122c10.706 0 19.385 8.679 19.385 19.385s-8.679 19.386-19.385 19.386z" opacity="1" data-original="#cfcfcf" class=""></path><path fill="#cfcfcf" d="M156.1 76.366h-23.061c-10.706 0-19.385-8.679-19.385-19.385s8.68-19.385 19.385-19.385H156.1c10.706 0 19.385 8.679 19.385 19.385s-8.68 19.385-19.385 19.385z" opacity="1" data-original="#cfcfcf" class=""></path><path fill="#9d9d9d" d="M430.555 288.596c44.309 0 81.493-36.249 81.445-80.558-.043-39.746-28.909-72.72-66.817-79.2a5.124 5.124 0 0 1-4.2-4.166c-8.65-50.04-52.445-88.041-105.047-87.649-58.216.435-105.498 48.528-104.986 106.744.054 6.092.623 12.061 1.665 17.866-30.111 5.614-52.815 32.281-52.219 64.156.655 35.026 29.859 62.808 64.891 62.808h185.268z" opacity="1" data-original="#9d9d9d"></path><path fill="#848484" d="M511.997 208.039c.031 29.422-16.347 55.295-40.329 69.347 12.043-14.031 19.365-32.137 19.345-51.824-.041-39.744-28.907-72.721-66.818-79.2a5.112 5.112 0 0 1-4.193-4.162c-8.654-50.036-52.447-88.039-105.048-87.648-20.47.154-39.6 6.199-55.764 16.511 19.172-20.707 46.492-33.818 76.749-34.045 52.601-.392 96.394 37.612 105.048 87.658.371 2.132 2.06 3.791 4.193 4.162 37.91 6.48 66.776 39.456 66.817 79.201z" opacity="1" data-original="#848484"></path><path fill="#cfcfcf" d="M279.617 299.913c35.393 0 65.132-28.956 64.947-64.349-.164-31.247-22.724-57.178-52.443-62.602-2.119-.387-3.784-2.021-4.168-4.14-7.301-40.195-43.148-70.443-85.78-68.965-43.796 1.518-79.421 37.01-81.099 80.8a85.247 85.247 0 0 0 .583 13.775c.31 2.498-1.296 4.836-3.72 5.516-21.669 6.08-37.496 26.123-37.138 49.817.422 27.949 23.752 50.147 51.704 50.147h147.114z" opacity="1" data-original="#cfcfcf" class=""></path><path fill="#cfcfcf" d="M353.246 395.688H72.11c-10.926 0-19.741 9.039-19.374 20.048.351 10.53 9.346 18.723 19.882 18.723h120.119c-10.926 0-19.741 9.039-19.374 20.048.351 10.53 9.346 18.723 19.882 18.723h-61.619c-10.926 0-19.741 9.039-19.374 20.048.351 10.53 9.346 18.723 19.882 18.723h120.675c10.643 0 19.295-8.58 19.385-19.222.091-10.77-8.615-19.548-19.385-19.548h61.111c10.643 0 19.295-8.58 19.385-19.222.091-10.77-8.615-19.548-19.385-19.548h39.326c10.643 0 19.295-8.58 19.385-19.222.09-10.773-8.615-19.551-19.385-19.551z" opacity="1" data-original="#cfcfcf" class=""></path><g fill="silver"><path d="M272.194 492.602v.175c-.092 10.642-8.746 19.223-19.388 19.223h-20.604c10.642 0 19.295-8.581 19.388-19.223v-.175c0-10.683-8.674-19.367-19.388-19.367h20.604c10.714-.001 19.388 8.684 19.388 19.367zM333.305 453.836v.175c-.093 10.642-8.746 19.223-19.388 19.223h-20.604c10.642 0 19.295-8.581 19.388-19.223v-.175c0-10.693-8.674-19.378-19.388-19.378h20.604c10.714 0 19.388 8.685 19.388 19.378zM372.627 415.235c-.082 10.642-8.736 19.223-19.378 19.223h-20.604c10.642 0 19.295-8.581 19.378-19.223.093-10.765-8.612-19.543-19.378-19.543h20.604c10.765.001 19.471 8.778 19.378 19.543z" fill="" opacity="1"></path></g><path fill="#ececec" d="M380.123 307.927c-1.194-26.787-23.514-48.242-50.327-48.437-23.932-.175-44.066 16.215-49.619 38.385-.212.845-1.257 1.126-1.888.525a24.837 24.837 0 0 0-17.187-6.875c-2.386 0-4.694.335-6.879.962-.782.224-1.549-.415-1.443-1.221.367-2.809.494-5.694.357-8.634-1.163-24.936-21.582-45.121-46.53-46.008-27.505-.978-50.11 21.029-50.11 48.316v.032c.001 1.02-1.229 1.547-1.932.808-5.996-6.305-14.466-10.235-23.853-10.235-.199 0-.397.002-.596.005a1.129 1.129 0 0 1-1.14-.932c-4.531-24.979-26.584-43.854-52.966-43.433-27.754.443-50.75 22.71-52.031 50.438a53.473 53.473 0 0 0 .532 10.436 1.13 1.13 0 0 1-.769 1.245C9.946 297.903 0 310.922 0 326.265c0 19.186 15.554 34.74 33.254 34.74h295.487c18.51 0 35.926-9.662 44.95-25.824a51.067 51.067 0 0 0 6.432-27.254z" opacity="1" data-original="#ececec" class=""></path><path fill="#e3e3e3" d="M373.695 335.176c-7.819 14.011-21.943 23.138-37.622 25.322 6.871-4.358 12.702-10.364 16.792-17.688a51.03 51.03 0 0 0 6.428-27.248c-1.195-26.785-23.509-48.243-50.324-48.439a50.98 50.98 0 0 0-7.016.433c8.015-5.172 17.585-8.139 27.846-8.066 26.805.196 49.129 21.654 50.324 48.439a51.022 51.022 0 0 1-6.428 27.247z" opacity="1" data-original="#e3e3e3"></path><path fill="#9d9d9d" d="M179.904 156.229H47.402a7.726 7.726 0 1 1 0-15.452h132.502a7.726 7.726 0 1 1 0 15.452zM503.306 379.685H398.401a7.726 7.726 0 1 1 0-15.452h104.905a7.726 7.726 0 1 1 0 15.452zM498.559 339.531h-30.925a7.726 7.726 0 1 1 0-15.452h30.925a7.726 7.726 0 1 1 0 15.452zM434.343 419.838h-14.652a7.726 7.726 0 1 1 0-15.452h14.652a7.726 7.726 0 1 1 0 15.452zM91.682 115.793H16.011a7.726 7.726 0 1 1 0-15.452h75.671a7.726 7.726 0 1 1 0 15.452zM75.234 84.72H53.847a7.726 7.726 0 1 1 0-15.452h21.388a7.726 7.726 0 1 1-.001 15.452z" opacity="1" data-original="#9d9d9d"></path></g></svg>
