<svg xmlns="http://www.w3.org/2000/svg" version="1.1" xmlns:xlink="http://www.w3.org/1999/xlink" width="512" height="512" x="0" y="0" viewBox="0 0 512 512" style="enable-background:new 0 0 512 512" xml:space="preserve" class=""><g><path fill="#ffe177" d="m293.278 24.498 20.645-21.212c5.91-6.072 16.189-3.318 18.271 4.896l7.273 28.693c7.195 28.383 36.389 45.238 64.567 37.278l28.486-8.048c8.154-2.304 15.679 5.221 13.375 13.375l-8.048 28.486c-7.961 28.178 8.894 57.372 37.278 64.567l28.693 7.273c8.214 2.082 10.968 12.361 4.896 18.271l-21.212 20.645c-20.983 20.423-20.983 54.133 0 74.555l21.212 20.645c6.072 5.91 3.318 16.189-4.896 18.271l-28.693 7.273c-28.383 7.195-45.238 36.389-37.278 64.567l8.048 28.486c2.304 8.154-5.221 15.679-13.375 13.375l-28.486-8.048c-28.178-7.961-57.372 8.894-64.567 37.278l-7.273 28.693c-2.082 8.214-12.361 10.968-18.271 4.896l-20.645-21.212c-20.423-20.983-54.133-20.983-74.555 0l-20.645 21.212c-5.91 6.072-16.189 3.318-18.271-4.896l-7.273-28.693c-7.195-28.383-36.389-45.238-64.567-37.278l-28.486 8.048c-8.154 2.304-15.679-5.221-13.375-13.375l8.048-28.486c7.961-28.178-8.894-57.372-37.278-64.567l-28.693-7.273c-8.214-2.082-10.968-12.361-4.896-18.271l21.212-20.645c20.983-20.423 20.983-54.133 0-74.555L3.286 198.077c-6.072-5.91-3.318-16.189 4.896-18.271l28.693-7.273c28.383-7.195 45.238-36.389 37.278-64.567L66.105 79.48c-2.304-8.154 5.221-15.679 13.375-13.375l28.486 8.048c28.178 7.961 57.372-8.894 64.567-37.278l7.273-28.693c2.082-8.214 12.361-10.968 18.271-4.896l20.645 21.212c20.423 20.983 54.133 20.983 74.556 0z" opacity="1" data-original="#ffe177" class=""></path><path fill="#ffd15b" d="m487.502 218.722 21.212-20.645c6.072-5.91 3.318-16.189-4.896-18.271l-28.693-7.273c-28.383-7.195-45.238-36.389-37.277-64.567l8.048-28.486c2.304-8.154-5.221-15.679-13.375-13.375l-28.486 8.048a52.285 52.285 0 0 1-10.698 1.854c16.128 31.953 25.223 68.062 25.223 106.299.001 130.155-106.1 236.255-236.255 236.255-38.237 0-74.346-9.095-106.299-25.223a52.287 52.287 0 0 1-1.854 10.697l-8.048 28.486c-2.304 8.154 5.221 15.679 13.375 13.375l28.486-8.048c28.178-7.961 57.372 8.894 64.567 37.278l7.273 28.693c2.082 8.214 12.361 10.968 18.271 4.896l20.645-21.212c20.423-20.983 54.133-20.983 74.555 0l20.645 21.212c5.91 6.072 16.189 3.318 18.271-4.896l7.273-28.693c7.195-28.383 36.389-45.239 64.567-37.278l28.486 8.048c8.154 2.304 15.679-5.221 13.375-13.375l-8.048-28.486c-7.961-28.178 8.894-57.372 37.277-64.567l28.693-7.273c8.214-2.082 10.968-12.361 4.896-18.271l-21.212-20.645c-20.98-20.424-20.98-54.134.003-74.557z" opacity="1" data-original="#ffd15b"></path><path fill="#ffd15b" d="m487.502 218.722 21.212-20.645c6.072-5.91 3.318-16.189-4.896-18.271l-28.693-7.273c-28.383-7.195-45.238-36.389-37.277-64.567l8.048-28.486c2.304-8.154-5.221-15.679-13.375-13.375l-28.486 8.048a52.285 52.285 0 0 1-10.698 1.854c16.128 31.953 25.223 68.062 25.223 106.299.001 130.155-106.1 236.255-236.255 236.255-38.237 0-74.346-9.095-106.299-25.223a52.287 52.287 0 0 1-1.854 10.697l-8.048 28.486c-2.304 8.154 5.221 15.679 13.375 13.375l28.486-8.048c28.178-7.961 57.372 8.894 64.567 37.278l7.273 28.693c2.082 8.214 12.361 10.968 18.271 4.896l20.645-21.212c20.423-20.983 54.133-20.983 74.555 0l20.645 21.212c5.91 6.072 16.189 3.318 18.271-4.896l7.273-28.693c7.195-28.383 36.389-45.239 64.567-37.278l28.486 8.048c8.154 2.304 15.679-5.221 13.375-13.375l-8.048-28.486c-7.961-28.178 8.894-57.372 37.277-64.567l28.693-7.273c8.214-2.082 10.968-12.361 4.896-18.271l-21.212-20.645c-20.98-20.424-20.98-54.134.003-74.557z" opacity="1" data-original="#ffd15b"></path><circle cx="256" cy="256" r="173.396" fill="#ffc344" opacity="1" data-original="#ffc344" class=""></circle><path fill="#feb237" d="M359.911 117.178c21.711 28.959 34.574 64.932 34.574 103.911 0 95.764-77.632 173.396-173.396 173.396-38.979 0-74.952-12.863-103.911-34.574 31.629 42.187 82.037 69.485 138.822 69.485 95.764 0 173.396-77.632 173.396-173.396 0-56.785-27.298-107.193-69.485-138.822z" opacity="1" data-original="#feb237" class=""></path></g></svg>
